<mxfile host="app.diagrams.net" modified="2023-03-23T07:30:17.730Z" agent="5.0 (Windows)" etag="tKY6tMVnjnVx9EGyVRYJ" version="21.0.10" type="github">
  <diagram name="Page-1" id="xG-VhV6qqZRDDuQ7ua2N">
    <mxGraphModel dx="637" dy="344" grid="1" gridSize="10" guides="1" tooltips="1" connect="1" arrows="1" fold="1" page="1" pageScale="1" pageWidth="827" pageHeight="1169" math="0" shadow="0">
      <root>
        <mxCell id="0" />
        <mxCell id="1" parent="0" />
        <mxCell id="q3skpxizesu7sMVwaphJ-14" style="edgeStyle=orthogonalEdgeStyle;rounded=0;orthogonalLoop=1;jettySize=auto;html=1;exitX=0.5;exitY=1;exitDx=0;exitDy=0;exitPerimeter=0;" edge="1" parent="1">
          <mxGeometry relative="1" as="geometry">
            <mxPoint x="439" y="90" as="sourcePoint" />
            <mxPoint x="442.51428571428573" y="129" as="targetPoint" />
          </mxGeometry>
        </mxCell>
        <mxCell id="q3skpxizesu7sMVwaphJ-1" value="Start" style="strokeWidth=2;html=1;shape=mxgraph.flowchart.start_1;whiteSpace=wrap;" vertex="1" parent="1">
          <mxGeometry x="390" y="30" width="100" height="60" as="geometry" />
        </mxCell>
        <mxCell id="q3skpxizesu7sMVwaphJ-15" style="edgeStyle=orthogonalEdgeStyle;rounded=0;orthogonalLoop=1;jettySize=auto;html=1;exitX=0.5;exitY=1;exitDx=0;exitDy=0;entryX=0.5;entryY=0;entryDx=0;entryDy=0;" edge="1" parent="1" source="q3skpxizesu7sMVwaphJ-3" target="q3skpxizesu7sMVwaphJ-4">
          <mxGeometry relative="1" as="geometry" />
        </mxCell>
        <mxCell id="q3skpxizesu7sMVwaphJ-3" value="Pilih Windows File Explorer (Win + E)" style="rounded=1;whiteSpace=wrap;html=1;absoluteArcSize=1;arcSize=14;strokeWidth=2;" vertex="1" parent="1">
          <mxGeometry x="391" y="129" width="105" height="50" as="geometry" />
        </mxCell>
        <mxCell id="q3skpxizesu7sMVwaphJ-16" style="edgeStyle=orthogonalEdgeStyle;rounded=0;orthogonalLoop=1;jettySize=auto;html=1;exitX=0.5;exitY=1;exitDx=0;exitDy=0;entryX=0.5;entryY=0;entryDx=0;entryDy=0;" edge="1" parent="1" source="q3skpxizesu7sMVwaphJ-4" target="q3skpxizesu7sMVwaphJ-5">
          <mxGeometry relative="1" as="geometry" />
        </mxCell>
        <mxCell id="q3skpxizesu7sMVwaphJ-4" value="Pilih OneDrive - PT Chemco Harapan Nusantara" style="rounded=1;whiteSpace=wrap;html=1;absoluteArcSize=1;arcSize=14;strokeWidth=2;" vertex="1" parent="1">
          <mxGeometry x="391" y="220" width="105" height="50" as="geometry" />
        </mxCell>
        <mxCell id="q3skpxizesu7sMVwaphJ-17" style="edgeStyle=orthogonalEdgeStyle;rounded=0;orthogonalLoop=1;jettySize=auto;html=1;exitX=0.5;exitY=1;exitDx=0;exitDy=0;entryX=0.5;entryY=0;entryDx=0;entryDy=0;" edge="1" parent="1" source="q3skpxizesu7sMVwaphJ-5" target="q3skpxizesu7sMVwaphJ-7">
          <mxGeometry relative="1" as="geometry" />
        </mxCell>
        <mxCell id="q3skpxizesu7sMVwaphJ-5" value="Klik kanan Pada OneDrive - PT Chemco Harapan Nusantara" style="rounded=1;whiteSpace=wrap;html=1;absoluteArcSize=1;arcSize=14;strokeWidth=2;" vertex="1" parent="1">
          <mxGeometry x="369" y="301" width="149" height="59" as="geometry" />
        </mxCell>
        <mxCell id="q3skpxizesu7sMVwaphJ-18" style="edgeStyle=orthogonalEdgeStyle;rounded=0;orthogonalLoop=1;jettySize=auto;html=1;exitX=0.5;exitY=1;exitDx=0;exitDy=0;entryX=0.5;entryY=0;entryDx=0;entryDy=0;" edge="1" parent="1" source="q3skpxizesu7sMVwaphJ-7" target="q3skpxizesu7sMVwaphJ-8">
          <mxGeometry relative="1" as="geometry" />
        </mxCell>
        <mxCell id="q3skpxizesu7sMVwaphJ-7" value="Klik Settings" style="rounded=1;whiteSpace=wrap;html=1;absoluteArcSize=1;arcSize=14;strokeWidth=2;" vertex="1" parent="1">
          <mxGeometry x="391" y="390" width="105" height="50" as="geometry" />
        </mxCell>
        <mxCell id="q3skpxizesu7sMVwaphJ-19" style="edgeStyle=orthogonalEdgeStyle;rounded=0;orthogonalLoop=1;jettySize=auto;html=1;exitX=0.5;exitY=1;exitDx=0;exitDy=0;entryX=0.5;entryY=0;entryDx=0;entryDy=0;" edge="1" parent="1" source="q3skpxizesu7sMVwaphJ-8" target="q3skpxizesu7sMVwaphJ-9">
          <mxGeometry relative="1" as="geometry" />
        </mxCell>
        <mxCell id="q3skpxizesu7sMVwaphJ-8" value="Tampil Setting OneDrive Account" style="rounded=1;whiteSpace=wrap;html=1;absoluteArcSize=1;arcSize=14;strokeWidth=2;" vertex="1" parent="1">
          <mxGeometry x="390" y="470" width="105" height="50" as="geometry" />
        </mxCell>
        <mxCell id="q3skpxizesu7sMVwaphJ-20" style="edgeStyle=orthogonalEdgeStyle;rounded=0;orthogonalLoop=1;jettySize=auto;html=1;exitX=0.5;exitY=1;exitDx=0;exitDy=0;entryX=0.5;entryY=0;entryDx=0;entryDy=0;" edge="1" parent="1" source="q3skpxizesu7sMVwaphJ-9" target="q3skpxizesu7sMVwaphJ-10">
          <mxGeometry relative="1" as="geometry" />
        </mxCell>
        <mxCell id="q3skpxizesu7sMVwaphJ-9" value="Pilih Account" style="rounded=1;whiteSpace=wrap;html=1;absoluteArcSize=1;arcSize=14;strokeWidth=2;" vertex="1" parent="1">
          <mxGeometry x="390" y="550" width="105" height="50" as="geometry" />
        </mxCell>
        <mxCell id="q3skpxizesu7sMVwaphJ-21" style="edgeStyle=orthogonalEdgeStyle;rounded=0;orthogonalLoop=1;jettySize=auto;html=1;exitX=0.5;exitY=1;exitDx=0;exitDy=0;entryX=0.5;entryY=0;entryDx=0;entryDy=0;" edge="1" parent="1" source="q3skpxizesu7sMVwaphJ-10" target="q3skpxizesu7sMVwaphJ-11">
          <mxGeometry relative="1" as="geometry" />
        </mxCell>
        <mxCell id="q3skpxizesu7sMVwaphJ-10" value="Klik Unlink This PC" style="rounded=1;whiteSpace=wrap;html=1;absoluteArcSize=1;arcSize=14;strokeWidth=2;" vertex="1" parent="1">
          <mxGeometry x="388.5" y="623" width="105" height="50" as="geometry" />
        </mxCell>
        <mxCell id="q3skpxizesu7sMVwaphJ-22" style="edgeStyle=orthogonalEdgeStyle;rounded=0;orthogonalLoop=1;jettySize=auto;html=1;exitX=0.5;exitY=1;exitDx=0;exitDy=0;" edge="1" parent="1" source="q3skpxizesu7sMVwaphJ-11" target="q3skpxizesu7sMVwaphJ-12">
          <mxGeometry relative="1" as="geometry" />
        </mxCell>
        <mxCell id="q3skpxizesu7sMVwaphJ-11" value="Klik Unlink Account" style="rounded=1;whiteSpace=wrap;html=1;absoluteArcSize=1;arcSize=14;strokeWidth=2;" vertex="1" parent="1">
          <mxGeometry x="391" y="700" width="105" height="50" as="geometry" />
        </mxCell>
        <mxCell id="q3skpxizesu7sMVwaphJ-23" style="edgeStyle=orthogonalEdgeStyle;rounded=0;orthogonalLoop=1;jettySize=auto;html=1;exitX=0.5;exitY=1;exitDx=0;exitDy=0;" edge="1" parent="1" source="q3skpxizesu7sMVwaphJ-12" target="q3skpxizesu7sMVwaphJ-13">
          <mxGeometry relative="1" as="geometry" />
        </mxCell>
        <mxCell id="q3skpxizesu7sMVwaphJ-12" value="Account sudah di Log Out dari OneDrive Desktop" style="rounded=1;whiteSpace=wrap;html=1;absoluteArcSize=1;arcSize=14;strokeWidth=2;" vertex="1" parent="1">
          <mxGeometry x="391" y="780" width="105" height="50" as="geometry" />
        </mxCell>
        <mxCell id="q3skpxizesu7sMVwaphJ-13" value="End" style="strokeWidth=2;html=1;shape=mxgraph.flowchart.start_1;whiteSpace=wrap;" vertex="1" parent="1">
          <mxGeometry x="393.5" y="860" width="100" height="60" as="geometry" />
        </mxCell>
      </root>
    </mxGraphModel>
  </diagram>
</mxfile>
